<svg width="15" height="16" viewBox="0 0 15 16" fill="none" xmlns="http://www.w3.org/2000/svg">
<path fill-rule="evenodd" clip-rule="evenodd" d="M0 6.74584C0 3.354 2.85417 0.60437 6.37497 0.60437C9.89577 0.60437 12.7499 3.354 12.7499 6.74584C12.7499 10.1377 9.89577 12.8873 6.37497 12.8873C2.85417 12.8873 0 10.1377 0 6.74584ZM6.37497 2.04942C3.68259 2.04942 1.49999 4.15208 1.49999 6.74584C1.49999 9.3396 3.68259 11.4423 6.37497 11.4423C9.06734 11.4423 11.2499 9.3396 11.2499 6.74584C11.2499 4.15208 9.06734 2.04942 6.37497 2.04942Z" fill="#343434"/>
<path fill-rule="evenodd" clip-rule="evenodd" d="M9.81971 10.0643C10.1126 9.78212 10.5875 9.78212 10.8804 10.0643L14.7803 13.8214C15.0732 14.1036 15.0732 14.5611 14.7803 14.8432C14.4874 15.1254 14.0126 15.1254 13.7197 14.8432L9.81971 11.0861C9.52681 10.8039 9.52681 10.3464 9.81971 10.0643Z" fill="#343434"/>
</svg>
