<svg width="22" height="22" viewBox="0 0 22 22" fill="none" xmlns="http://www.w3.org/2000/svg">
<path d="M10.6627 14.7477C10.0337 14.7477 9.52441 15.2719 9.52441 15.901C9.52441 16.515 10.0187 17.0542 10.6627 17.0542C11.3067 17.0542 11.816 16.5151 11.816 15.901C11.816 15.2719 11.2918 14.7477 10.6627 14.7477Z" fill="#343434"/>
<path d="M10.8578 6.01562C8.83582 6.01562 7.90723 7.21381 7.90723 8.0226C7.90723 8.60676 8.40145 8.87635 8.80588 8.87635C9.61463 8.87635 9.28515 7.72307 10.8129 7.72307C11.5618 7.72307 12.1609 8.0526 12.1609 8.74156C12.1609 9.5504 11.3221 10.0147 10.8279 10.434C10.3935 10.8085 9.82436 11.4226 9.82436 12.7107C9.82436 13.4895 10.034 13.7141 10.6481 13.7141C11.382 13.7141 11.5318 13.3847 11.5318 13.1001C11.5318 12.3212 11.5468 11.8719 12.3706 11.2279C12.7749 10.9134 14.0481 9.89488 14.0481 8.48697C14.0481 7.07906 12.7749 6.01562 10.8578 6.01562Z" fill="#343434"/>
<path d="M11 0C4.92061 0 0 4.91979 0 11V21.1406C0 21.6153 0.384742 22 0.859375 22H11C17.0793 22 22 17.0802 22 11C22 4.92061 17.0802 0 11 0ZM11 20.2812H1.71875V11C1.71875 5.87052 5.86983 1.71875 11 1.71875C16.1295 1.71875 20.2812 5.86983 20.2812 11C20.2812 16.1295 16.1302 20.2812 11 20.2812Z" fill="#343434"/>
</svg>
