<svg width="30" height="17" viewBox="0 0 30 17" fill="none" xmlns="http://www.w3.org/2000/svg">
<path d="M29.7266 15.0518C29.6904 14.9756 29.6566 14.9124 29.6253 14.8617C29.1068 13.9489 28.116 12.8285 26.6534 11.5002L26.6225 11.4697L26.607 11.4548L26.5913 11.4395H26.5756C25.9118 10.821 25.4915 10.4051 25.3155 10.1922C24.9934 9.78658 24.9212 9.37602 25.0973 8.96002C25.2216 8.64572 25.6888 7.98196 26.4977 6.96783C26.9231 6.43038 27.2601 5.99962 27.5089 5.67509C29.3037 3.34287 30.0817 1.85255 29.843 1.20354L29.7503 1.05188C29.688 0.960571 29.5273 0.877041 29.2682 0.800863C29.0086 0.724844 28.6768 0.712273 28.2721 0.762934L23.791 0.793192C23.7184 0.768048 23.6147 0.770392 23.4797 0.800863C23.3448 0.831334 23.2773 0.846623 23.2773 0.846623L23.1993 0.884712L23.1374 0.930472C23.0855 0.96073 23.0285 1.01395 22.9662 1.09002C22.9042 1.16583 22.8524 1.25479 22.811 1.35616C22.3231 2.58306 21.7684 3.72376 21.1459 4.77822C20.762 5.40698 20.4095 5.95189 20.0876 6.41328C19.7661 6.8745 19.4964 7.21432 19.2787 7.43215C19.0607 7.65019 18.864 7.82486 18.6873 7.95682C18.5109 8.08882 18.3762 8.1446 18.283 8.1242C18.1895 8.10379 18.1015 8.08355 18.0182 8.06331C17.873 7.972 17.7563 7.84782 17.6683 7.69067C17.5799 7.53352 17.5204 7.33572 17.4892 7.09744C17.4583 6.859 17.44 6.6539 17.4347 6.48146C17.4299 6.30924 17.4321 6.06563 17.4426 5.75133C17.4534 5.43686 17.4583 5.2241 17.4583 5.11255C17.4583 4.72718 17.466 4.30895 17.4814 3.85774C17.4971 3.40653 17.5098 3.04902 17.5204 2.78565C17.531 2.52201 17.5359 2.24308 17.5359 1.94902C17.5359 1.65496 17.5176 1.42435 17.4814 1.25697C17.4456 1.08981 17.3908 0.927542 17.3184 0.770232C17.2457 0.613081 17.1392 0.491516 16.9995 0.405216C16.8594 0.319023 16.6854 0.250622 16.4782 0.199801C15.9284 0.0781824 15.2282 0.0123922 14.3775 0.00216409C12.4481 -0.0180791 11.2084 0.103699 10.6587 0.36734C10.4408 0.47873 10.2437 0.630927 10.0674 0.82345C9.88068 1.0466 9.85463 1.16838 9.98946 1.18841C10.6119 1.27956 11.0526 1.4976 11.312 1.84232L11.4055 2.02499C11.4782 2.15678 11.5507 2.39011 11.6234 2.72466C11.6959 3.0592 11.7427 3.42928 11.7633 3.83467C11.8151 4.57499 11.8151 5.2087 11.7633 5.73588C11.7114 6.26327 11.6624 6.67383 11.6155 6.96789C11.5687 7.26194 11.4988 7.50023 11.4055 7.68268C11.312 7.86519 11.2498 7.97674 11.2186 8.01723C11.1875 8.05771 11.1616 8.08323 11.141 8.09325C11.0061 8.14375 10.8659 8.16948 10.7208 8.16948C10.5754 8.16948 10.3992 8.09841 10.1918 7.95639C9.98439 7.81437 9.76917 7.61929 9.54611 7.37083C9.32304 7.12232 9.07148 6.77504 8.7913 6.32895C8.51134 5.88285 8.22086 5.35563 7.92002 4.74727L7.67112 4.30607C7.51553 4.02224 7.30298 3.60896 7.03327 3.0666C6.76339 2.52403 6.52485 1.9992 6.31748 1.49222C6.23458 1.27929 6.11005 1.11719 5.9441 1.00564L5.86622 0.959878C5.81445 0.919392 5.73134 0.876402 5.61733 0.830588C5.50315 0.784828 5.38402 0.752013 5.25943 0.731823L0.996025 0.762081C0.560359 0.762081 0.264756 0.858556 0.109107 1.05124L0.0468147 1.14239C0.0156957 1.19315 0 1.27423 0 1.38584C0 1.49739 0.031119 1.63429 0.0934114 1.7964C0.715791 3.22621 1.39261 4.60514 2.12388 5.93341C2.85515 7.26168 3.49061 8.33163 4.02988 9.14232C4.56926 9.95359 5.11904 10.7193 5.67924 11.439C6.23943 12.1589 6.61025 12.6203 6.79167 12.823C6.97332 13.0261 7.116 13.1779 7.21971 13.2793L7.60878 13.6442C7.85773 13.8876 8.22331 14.1791 8.70568 14.5187C9.18816 14.8586 9.7223 15.1931 10.3084 15.5229C10.8946 15.8522 11.5765 16.1209 12.3546 16.3287C13.1326 16.5367 13.8898 16.6202 14.6263 16.5799H16.4158C16.7787 16.5493 17.0536 16.4377 17.2405 16.2452L17.3024 16.169C17.3441 16.1085 17.383 16.0144 17.419 15.8879C17.4554 15.7612 17.4735 15.6216 17.4735 15.4697C17.4629 15.0338 17.4968 14.6409 17.5744 14.2911C17.652 13.9414 17.7404 13.6778 17.8392 13.5002C17.938 13.3229 18.0495 13.1732 18.1736 13.0518C18.298 12.9302 18.3866 12.8565 18.4386 12.8312C18.4903 12.8056 18.5315 12.7883 18.5627 12.7779C18.8116 12.6969 19.1046 12.7754 19.442 13.0139C19.7792 13.2522 20.0955 13.5464 20.3913 13.8961C20.687 14.246 21.0422 14.6387 21.457 15.0746C21.8722 15.5107 22.2351 15.8349 22.5462 16.0481L22.8573 16.2306C23.065 16.3524 23.3348 16.4639 23.6668 16.5653C23.9982 16.6666 24.2885 16.692 24.5379 16.6413L28.521 16.5806C28.915 16.5806 29.2216 16.5168 29.439 16.3903C29.6569 16.2636 29.7864 16.124 29.8281 15.9721C29.8697 15.8201 29.872 15.6476 29.836 15.4547C29.7991 15.2624 29.7628 15.1278 29.7266 15.0518Z" fill="white"/>
</svg>
