<svg width="31" height="20" viewBox="0 0 31 20" fill="none" xmlns="http://www.w3.org/2000/svg">
<path d="M3.708 14.028C3.708 14.5648 4.14318 15 4.68 15C5.21682 15 5.652 14.5648 5.652 14.028V11.238H8.451C8.95303 11.238 9.36 10.831 9.36 10.329C9.36 9.82693 8.95303 9.41996 8.451 9.41996H5.652V6.62996C5.652 6.09314 5.21682 5.65796 4.68 5.65796C4.14318 5.65796 3.708 6.09314 3.708 6.62996V9.41996H0.909C0.406973 9.41996 0 9.82693 0 10.329C0 10.831 0.406973 11.238 0.909 11.238H3.708V14.028Z" fill="#343434"/>
<path fill-rule="evenodd" clip-rule="evenodd" d="M15.1667 17.5C15.1667 16.1193 16.286 15 17.6667 15C19.0474 15 20.1667 16.1193 20.1667 17.5C20.1667 18.8807 19.0474 20 17.6667 20C16.286 20 15.1667 18.8807 15.1667 17.5ZM17.6667 16.6667C17.2064 16.6667 16.8333 17.0398 16.8333 17.5C16.8333 17.9602 17.2064 18.3333 17.6667 18.3333C18.1269 18.3333 18.5 17.9602 18.5 17.5C18.5 17.0398 18.1269 16.6667 17.6667 16.6667Z" fill="#343434"/>
<path fill-rule="evenodd" clip-rule="evenodd" d="M25.1667 17.5C25.1667 16.1193 26.2859 15 27.6667 15C29.0474 15 30.1667 16.1193 30.1667 17.5C30.1667 18.8807 29.0474 20 27.6667 20C26.2859 20 25.1667 18.8807 25.1667 17.5ZM27.6667 16.6667C27.2064 16.6667 26.8333 17.0398 26.8333 17.5C26.8333 17.9602 27.2064 18.3333 27.6667 18.3333C28.1269 18.3333 28.5 17.9602 28.5 17.5C28.5 17.0398 28.1269 16.6667 27.6667 16.6667Z" fill="#343434"/>
<path fill-rule="evenodd" clip-rule="evenodd" d="M11 0.833333C11 0.373096 11.3731 0 11.8333 0H13.7096C14.9631 0.00189895 16.0214 0.931822 16.1845 2.17465L16.4474 4.16667H30.1667C30.4164 4.16667 30.6529 4.27863 30.8112 4.47175C30.9695 4.66487 31.0328 4.91878 30.9838 5.16362L29.5838 12.1552C29.348 13.3394 28.2994 14.1856 27.0928 14.1667H18.2948C17.0336 14.1754 15.9631 13.2432 15.7988 11.9923M15.7988 11.9923L14.5322 2.39234C14.4779 1.97818 14.1252 1.66756 13.7076 1.66667H11.8333C11.3731 1.66667 11 1.29357 11 0.833333M16.6673 5.83333L17.4512 11.7743C17.5059 12.1918 17.8635 12.5036 18.2846 12.5L18.2917 12.5L27.1 12.5L27.116 12.5002C27.5196 12.5079 27.8707 12.2253 27.9493 11.8293L27.9495 11.8281L29.1499 5.83333H16.6673Z" fill="#343434"/>
</svg>
