<svg width="21" height="20" viewBox="0 0 21 20" fill="none" xmlns="http://www.w3.org/2000/svg">
<path fill-rule="evenodd" clip-rule="evenodd" d="M4.21667 17.5C4.21667 16.1193 5.34939 15 6.74667 15C8.14395 15 9.27666 16.1193 9.27666 17.5C9.27666 18.8807 8.14395 20 6.74667 20C5.34939 20 4.21667 18.8807 4.21667 17.5ZM6.74667 16.6667C6.28091 16.6667 5.90334 17.0398 5.90334 17.5C5.90334 17.9602 6.28091 18.3333 6.74667 18.3333C7.21243 18.3333 7.59 17.9602 7.59 17.5C7.59 17.0398 7.21243 16.6667 6.74667 16.6667Z" fill="#343434"/>
<path fill-rule="evenodd" clip-rule="evenodd" d="M14.3365 17.5C14.3365 16.1193 15.4693 15 16.8665 15C18.2638 15 19.3965 16.1193 19.3965 17.5C19.3965 18.8807 18.2638 20 16.8665 20C15.4693 20 14.3365 18.8807 14.3365 17.5ZM16.8665 16.6667C16.4008 16.6667 16.0232 17.0398 16.0232 17.5C16.0232 17.9602 16.4008 18.3333 16.8665 18.3333C17.3323 18.3333 17.7099 17.9602 17.7099 17.5C17.7099 17.0398 17.3323 16.6667 16.8665 16.6667Z" fill="#343434"/>
<path fill-rule="evenodd" clip-rule="evenodd" d="M0 0.833333C0 0.373096 0.377572 0 0.843332 0H2.74211C4.01067 0.00189895 5.08167 0.931822 5.24675 2.17465C5.24677 2.17477 5.24674 2.17454 5.24675 2.17465L5.51274 4.16667H19.3966C19.6493 4.16667 19.8887 4.27863 20.0489 4.47175C20.2091 4.66487 20.2732 4.91878 20.2235 5.16362L18.807 12.154C18.8069 12.1544 18.8069 12.1548 18.8068 12.1552C18.8068 12.1552 18.8068 12.1551 18.8068 12.1552C18.5681 13.3394 17.507 14.1856 16.2859 14.1667H7.38234C6.106 14.1754 5.02268 13.2432 4.8564 11.9923M4.8564 11.9923L3.57454 2.39234C3.51959 1.97818 3.16274 1.66755 2.74008 1.66667H0.843332C0.377572 1.66667 0 1.29357 0 0.833333M5.73529 5.83333L6.52857 11.7743C6.58395 12.1918 6.9459 12.5036 7.372 12.5L7.37915 12.5L16.2932 12.5L16.3093 12.5002C16.7178 12.5079 17.0731 12.2253 17.1527 11.8293L17.1529 11.8281L18.3677 5.83333H5.73529Z" fill="#343434"/>
</svg>
