<svg width="78" height="92" viewBox="0 0 78 92" fill="none" xmlns="http://www.w3.org/2000/svg">
<path d="M62.7915 44.4525L60.2194 26.9055C59.7765 23.9277 58.2083 21.227 55.8484 19.3626L59.4346 13.1511C59.8943 12.3547 59.619 11.327 58.8226 10.8672C58.0263 10.4075 56.9986 10.6829 56.5388 11.4792L52.9526 17.6907C50.1664 16.5647 47.0433 16.557 44.2491 17.6851L27.7296 24.2288C26.2941 24.8093 25.0784 25.8449 24.301 27.1915L3.41081 63.3743C1.53606 66.6549 2.67041 70.8427 5.95102 72.7175C5.9655 72.7258 5.96549 72.7258 5.97997 72.7342L31.6511 87.5554C34.9067 89.4736 39.1067 88.3849 41.0249 85.1294C41.0332 85.1149 41.0332 85.1149 41.0416 85.1005L61.9318 48.9176C62.7092 47.571 62.9982 46.0004 62.7915 44.4525ZM46.2501 32.6436C48.5812 33.9894 49.3767 36.9584 48.0308 39.2895C46.685 41.6207 43.716 42.4162 41.3849 41.0703C39.0538 39.7245 38.2582 36.7555 39.6041 34.4244C40.9416 32.1077 43.9189 31.2977 46.2501 32.6436ZM38.1603 83.4369C37.1822 85.131 35.0315 85.6461 33.3375 84.668L7.65186 69.8384C5.95782 68.8603 5.32855 66.7402 6.3066 65.0462L27.1968 28.8633C27.598 28.1683 28.2226 27.6216 28.9663 27.3367L45.4713 20.7845C47.3202 20.0566 49.3693 19.9849 51.2556 20.6299L46.3904 29.0566C42.0793 27.6294 37.4444 29.9728 36.0172 34.284C34.5899 38.5951 36.9333 43.23 41.2445 44.6573C45.5556 46.0845 50.1905 43.7411 51.6178 39.4299C52.6353 36.3301 51.7318 32.9127 49.2862 30.7285L54.1514 22.3018C54.6782 22.7603 55.1403 23.2974 55.54 23.8757C56.2487 24.9219 56.7162 26.1185 56.8952 27.3801L59.4962 44.9438C59.6129 45.7448 59.4517 46.5591 59.0505 47.2541L38.1603 83.4369Z" fill="#343434"/>
<path d="M22.7235 60.1916L24.4162 61.169L25.2902 59.6552L23.5974 58.6779L24.9868 56.2715L26.6795 57.2488L30.1305 51.2715L34.9549 54.0569C36.9015 55.1808 38.1101 56.3615 38.5804 57.5991C39.0649 58.8449 38.9412 60.1017 38.2092 61.3696C37.7759 62.12 37.1854 62.7192 36.4377 63.1673C35.69 63.6154 34.7701 63.7916 33.6781 63.6959C32.6002 63.6083 31.3277 63.141 29.8606 62.294L28.4852 61.4999L27.6113 63.0136L30.8698 64.895L29.783 66.7774L26.5245 64.8961L25.3256 66.9726L22.1305 65.1279L23.3294 63.0514L21.6366 62.0741L22.7235 60.1916ZM33.3962 56.3656L31.9362 55.5226L29.8746 59.0935L30.9326 59.7043C31.8354 60.2255 32.6299 60.4945 33.3162 60.5112C34.0165 60.536 34.5497 60.2315 34.9157 59.5975C35.5955 58.4202 35.089 57.3429 33.3962 56.3656Z" fill="#343434"/>
</svg>
