<svg width="80" height="77" viewBox="0 0 80 77" fill="none" xmlns="http://www.w3.org/2000/svg">
<path d="M79.9361 43.3831C79.7367 42.4772 79.0981 41.7455 78.2275 41.4255L74.9095 40.2059C74.3089 39.9852 73.6425 40.2931 73.4216 40.8941C73.2008 41.495 73.5088 42.1613 74.1098 42.382L77.4278 43.6016C77.6005 43.665 77.6548 43.8041 77.6717 43.8812C77.6888 43.9584 77.6978 44.1073 77.5675 44.2375L47.9495 73.8556C47.8191 73.9861 47.67 73.9767 47.5931 73.9598C47.5159 73.9428 47.377 73.8886 47.3136 73.7156L43.1512 62.3908C42.8769 61.6445 42.2916 61.0594 41.5455 60.7852L30.2208 56.623C30.048 56.5594 29.9937 56.4205 29.9767 56.3433C29.9597 56.2661 29.9506 56.1172 30.0808 55.987L59.6991 26.3689C59.8294 26.2386 59.978 26.2478 60.0553 26.2647C60.1325 26.2817 60.2714 26.3359 60.3348 26.5087L64.497 37.8334C64.7712 38.5798 65.3567 39.165 66.103 39.4392L68.9833 40.4978C69.5842 40.7189 70.2505 40.4106 70.4713 39.8097C70.692 39.2087 70.3841 38.5425 69.783 38.3217L66.9025 37.263C66.7961 37.2239 66.7125 37.1403 66.6734 37.0337L62.5112 25.7091C62.1912 24.8384 61.4595 24.1998 60.5537 24.0005C59.6483 23.8009 58.7158 24.0737 58.0597 24.7295L56.9384 25.8508V14.3498C56.9384 12.8584 55.725 11.645 54.2336 11.645H42.4267C43.5069 9.545 43.1694 6.89844 41.4122 5.14141C39.9078 3.63703 37.7262 3.14281 35.7717 3.76781C35.0169 1.57812 32.9369 0 30.4941 0C28.0514 0 25.9716 1.57781 25.2166 3.76719C23.2622 3.14109 21.0828 3.63437 19.5761 5.14125C18.5217 6.19547 17.9411 7.59719 17.9411 9.08828C17.9411 9.99266 18.1561 10.8638 18.5595 11.6448H17.587C16.9469 11.6448 16.4278 12.1639 16.4278 12.8041C16.4278 13.4442 16.9469 13.9633 17.587 13.9633H25.848V24.935C24.5655 24.7016 23.2598 24.5808 21.9472 24.5808C19.5309 24.5808 17.2572 24.9573 15.0812 25.682L6.36844 25.6823V14.3497C6.36844 14.1366 6.54172 13.9633 6.75484 13.9633H12.04C12.6802 13.9633 13.1992 13.4442 13.1992 12.8041C13.1992 12.1639 12.6802 11.6448 12.04 11.6448H6.75453C5.26312 11.6448 4.04969 12.8583 4.04969 14.3497V33.8159C4.04969 33.823 4.05062 33.8298 4.05078 33.837C1.50078 37.4223 0 41.8031 0 46.5278C0 51.2419 1.47844 55.7378 4.27547 59.5297C4.50281 59.8378 4.85359 60.0008 5.20922 60.0008C5.44828 60.0008 5.68937 59.9272 5.89641 59.7744C6.41172 59.3944 6.52125 58.6686 6.14109 58.1533C3.64016 54.763 2.31828 50.7428 2.31828 46.5277C2.31828 35.7045 11.1236 26.8994 21.9467 26.8994C31.0186 26.8994 38.8172 33.0112 40.9967 41.7922L39.0342 43.7547C38.4472 40.11 36.71 36.7533 34.0159 34.1298C30.7628 30.9623 26.4766 29.2178 21.9467 29.2178C12.402 29.2178 4.63672 36.983 4.63672 46.5277C4.63672 56.0723 12.4019 63.8377 21.9467 63.8377C25.8861 63.8377 29.7017 62.4894 32.7673 60.0291L35.252 60.9422C31.64 64.2733 26.8806 66.1561 21.9467 66.1561C17.4686 66.1561 13.0853 64.6016 9.60437 61.7791C9.10719 61.3758 8.37719 61.452 7.97391 61.9494C7.57063 62.4467 7.64688 63.1766 8.14422 63.58C12.0367 66.7364 16.9386 68.4747 21.9467 68.4747C27.8559 68.4747 33.5405 66.0608 37.6642 61.8288L40.7456 62.9613C40.8522 63.0005 40.9358 63.0841 40.9748 63.1906L45.137 74.5153C45.457 75.3859 46.1887 76.0245 47.0944 76.2239C47.2897 76.2669 47.4862 76.288 47.6809 76.288C48.3894 76.288 49.0739 76.0094 49.5886 75.4949L79.2069 45.8769C79.8627 45.2211 80.1353 44.2889 79.9361 43.3831ZM6.36812 31.0853V28.0011H10.1941C8.80516 28.8853 7.52219 29.9211 6.36812 31.0853ZM54.6198 14.3498V25.6825H35.1402V13.9634H54.2334C54.4466 13.9634 54.6198 14.1369 54.6198 14.3498ZM39.7728 6.78078C41.0452 8.05328 41.0452 10.1237 39.773 11.3959C39.7222 11.4469 39.6236 11.5312 39.4525 11.645H33.8045C35.4872 8.47984 35.9234 6.93109 36.0361 6.15297C37.278 5.54578 38.7783 5.78625 39.7728 6.78078ZM30.4939 2.31844C32.2934 2.31844 33.7575 3.7825 33.7575 5.58187C33.7575 5.91687 33.5669 7.3375 31.1639 11.6448H29.8241C27.4216 7.33859 27.2305 5.9175 27.2305 5.58187C27.2305 3.7825 28.6944 2.31844 30.4939 2.31844ZM21.2153 11.3961C20.5989 10.7797 20.2594 9.96016 20.2594 9.08844C20.2594 8.21672 20.5989 7.39719 21.2153 6.78078C22.2116 5.78453 23.7097 5.54547 24.9519 6.15359C25.0647 6.93203 25.5006 8.48 27.1833 11.645H21.5356C21.3645 11.5314 21.2663 11.447 21.2153 11.3961ZM28.1661 13.9634H32.8217V25.6825H28.8078C28.8027 25.6825 28.7978 25.6831 28.7927 25.6833C28.5848 25.6148 28.3758 25.5505 28.1661 25.4883V13.9634ZM35.6636 29.4066C35.033 28.9005 34.3756 28.4319 33.6964 28.0011H54.62V28.1692L50.1325 32.6567H38.938C37.967 31.4672 36.8705 30.3753 35.6636 29.4066ZM40.5936 34.9752H47.8139L42.8736 39.9155C42.3225 38.1805 41.5538 36.5198 40.5936 34.9752ZM21.9469 61.5194C13.6805 61.5194 6.95547 54.7942 6.95547 46.528C6.95547 38.2617 13.6806 31.5366 21.9469 31.5366C29.9048 31.5366 36.5744 37.9441 36.9228 45.8666L28.4416 54.3478C27.7858 55.0036 27.5131 55.9359 27.7125 56.8417C27.9119 57.7475 28.5506 58.4792 29.4211 58.7992L30.1519 59.0678C27.7242 60.6592 24.8748 61.5194 21.9469 61.5194Z" fill="#343434"/>
<path d="M56.8407 59.7344C56.9866 59.7344 57.1354 59.7066 57.2788 59.6478C57.8715 59.4056 58.1555 58.7287 57.9132 58.1361L51.2385 41.8073C50.9965 41.2148 50.3197 40.9303 49.7268 41.173C49.1341 41.4152 48.8501 42.092 49.0924 42.6847L55.7671 59.0134C55.9507 59.4625 56.3836 59.7344 56.8407 59.7344Z" fill="#343434"/>
<path d="M43.0587 46.6415C42.2465 47.4537 41.8493 48.569 41.9403 49.782C42.0263 50.9295 42.5463 52.0342 43.4043 52.8922C44.2624 53.7503 45.367 54.2703 46.5146 54.3562C46.6284 54.3648 46.7413 54.369 46.8532 54.369C47.9342 54.369 48.919 53.9737 49.6551 53.2378C50.4673 52.4256 50.8645 51.3103 50.7735 50.0973C50.6874 48.9497 50.1674 47.8451 49.3095 46.987C48.4513 46.1289 47.3468 45.6089 46.1992 45.5229C44.9853 45.4315 43.8707 45.8293 43.0587 46.6415ZM47.6701 48.6265C48.1359 49.0925 48.4171 49.6764 48.4617 50.2708C48.5013 50.7997 48.3429 51.2712 48.0156 51.5986C47.6884 51.9258 47.2163 52.0836 46.6879 52.0445C46.0935 52 45.5096 51.7189 45.0437 51.2529C44.5779 50.787 44.2967 50.2031 44.2521 49.6089C44.2124 49.08 44.3709 48.6084 44.6982 48.2811C44.9924 47.9869 45.4032 47.8292 45.8678 47.8292C45.9198 47.8292 45.9726 47.8312 46.0259 47.8351C46.6203 47.8795 47.2042 48.1606 47.6701 48.6265C47.6699 48.6265 47.6699 48.6265 47.6701 48.6265Z" fill="#343434"/>
<path d="M61.236 55.7139C62.3171 55.7139 63.3019 55.3186 64.0379 54.5826C65.6659 52.9547 65.5109 50.1506 63.6924 48.3319C63.6924 48.3319 63.6924 48.3319 63.6923 48.3319C61.8738 46.5133 59.0698 46.3584 57.4416 47.9862C55.8137 49.6142 55.9687 52.4183 57.7873 54.2369C58.6454 55.095 59.7499 55.615 60.8976 55.7009C61.0115 55.7097 61.1243 55.7139 61.236 55.7139ZM59.0812 49.6258C59.3882 49.3187 59.8046 49.1698 60.2524 49.1698C60.8604 49.1698 61.5262 49.4447 62.0529 49.9714C62.9676 50.8861 63.1226 52.2194 62.3984 52.9434C62.0712 53.2704 61.5995 53.4289 61.0709 53.3894C60.4765 53.3448 59.8924 53.0637 59.4266 52.5978C58.5121 51.6829 58.3571 50.3498 59.0812 49.6258Z" fill="#343434"/>
<path d="M16 50.4286H17.9546V48.6807H16V45.902H17.9546V39H23.5253C25.7731 39 27.4101 39.4183 28.4363 40.2549C29.4788 41.0915 30 42.2419 30 43.7059C30 44.5724 29.7883 45.3866 29.3647 46.1485C28.9412 46.9104 28.2327 47.5229 27.2391 47.986C26.2618 48.4492 24.9261 48.6807 23.2321 48.6807H21.644V50.4286H25.4066V52.6023H21.644V55H17.9546V52.6023H16V50.4286ZM23.3298 41.7788H21.644V45.902H22.8656C23.9081 45.902 24.7307 45.7377 25.3333 45.409C25.9523 45.0803 26.2618 44.55 26.2618 43.818C26.2618 42.4585 25.2845 41.7788 23.3298 41.7788Z" fill="#343434"/>
</svg>
