<svg width="80" height="73" viewBox="0 0 80 73" fill="none" xmlns="http://www.w3.org/2000/svg">
<path d="M79.9997 9.89904C79.9997 9.89029 79.9987 9.88154 79.9983 9.87264C79.9974 9.83779 79.9954 9.80342 79.9913 9.76936C79.9898 9.75686 79.9874 9.74436 79.9855 9.73186C79.9808 9.70045 79.9751 9.66951 79.9679 9.6392C79.9651 9.62717 79.9619 9.61529 79.9587 9.60326C79.9496 9.57029 79.9393 9.53795 79.9274 9.50608C79.9252 9.49998 79.9238 9.49373 79.9215 9.48779L76.7426 1.35C76.4221 0.529999 75.646 0 74.7655 0H68.9774C68.3465 0 67.8351 0.511405 67.8351 1.14234C67.8351 1.77328 68.3465 2.28468 68.9774 2.28468H74.6549L77.1848 8.76108H53.267L51.7684 2.28468H60.6017C61.2326 2.28468 61.744 1.77328 61.744 1.14234C61.744 0.511405 61.2326 0 60.6017 0H50.3315H38.8211H14.3869C13.5063 0 12.7304 0.529999 12.4099 1.35031L9.23098 9.48779C9.22864 9.49389 9.22739 9.50014 9.22505 9.50608C9.21317 9.53779 9.20286 9.57014 9.1938 9.60326C9.19052 9.61529 9.18739 9.62717 9.18458 9.6392C9.17739 9.66967 9.17161 9.70061 9.16692 9.73186C9.16505 9.74436 9.1627 9.75686 9.16114 9.76936C9.15724 9.80342 9.15505 9.83779 9.15411 9.87264C9.15395 9.88139 9.15286 9.89014 9.1527 9.89904C9.1527 9.90045 9.15255 9.90186 9.15255 9.90326V26.686C9.15255 27.317 9.66395 27.8284 10.2949 27.8284C10.9258 27.8284 11.4372 27.317 11.4372 26.686V11.0458H35.6516V28.4095C35.6516 29.0885 36.0516 29.7073 36.6708 29.9859C36.8975 30.0879 37.1389 30.1378 37.3787 30.1378C37.7937 30.1378 38.2042 29.9887 38.5261 29.7034L44.5762 24.3434L50.6264 29.7032C51.1343 30.1537 51.8628 30.2645 52.482 29.9859C53.1011 29.7071 53.5011 29.0885 53.5011 28.4095V11.0458H77.7152V62.2836C77.7152 63.1033 77.0482 63.7703 76.2285 63.7703H55.2828C55.2828 63.7574 55.2812 63.7444 55.2811 63.7314C55.2798 63.6289 55.2761 63.5266 55.2673 63.425C57.234 63.9464 59.3354 62.9357 60.1235 61.0028C60.5381 59.9861 60.532 58.8689 60.1062 57.8571C60.066 57.7618 60.0218 57.6693 59.9753 57.5782C59.9667 57.5614 59.9584 57.5446 59.9498 57.528C59.904 57.4411 59.8553 57.3563 59.8039 57.2736C59.7939 57.2575 59.7835 57.2419 59.7734 57.226C59.719 57.1411 59.6626 57.0579 59.6024 56.9777C59.6014 56.9761 59.6001 56.9747 59.599 56.9733C59.5393 56.8941 59.4762 56.8179 59.411 56.7433C59.3992 56.7297 59.3874 56.716 59.3754 56.7024C59.3109 56.6305 59.2439 56.561 59.1745 56.494C59.1609 56.4808 59.1471 56.4682 59.1334 56.4554C59.0607 56.3871 58.9864 56.3207 58.9089 56.258C58.9062 56.256 58.9035 56.254 58.9009 56.2519C58.8246 56.1905 58.7454 56.1324 58.6646 56.0765C58.6501 56.0663 58.6357 56.056 58.6209 56.046C58.5401 55.9916 58.4573 55.9402 58.3723 55.8913C58.3653 55.8872 58.3589 55.8825 58.3517 55.8785C58.8345 55.4607 59.2156 54.9319 59.4637 54.3235C59.8782 53.3068 59.8721 52.1896 59.4464 51.1776C59.0739 50.2921 58.419 49.5799 57.5803 49.138C57.4604 49.0749 57.3368 49.0172 57.2098 48.9655L39.4306 41.716L47.7065 39.1545C49.6754 38.5449 50.7843 36.4449 50.1784 34.4735C49.9523 33.7376 49.504 33.117 48.925 32.6634C48.0633 31.9882 46.9115 31.6834 45.7694 31.9232C45.7639 31.9245 45.7586 31.9254 45.7531 31.9268C45.6898 31.941 39.3455 33.3676 32.7194 34.6596C32.4255 34.717 32.1391 34.7723 31.8567 34.8267C31.6308 34.8701 31.408 34.9129 31.1894 34.9545C31.1266 34.9665 31.0636 34.9784 31.0013 34.9902C30.6153 35.0635 30.2414 35.1337 29.878 35.2012C29.7317 35.2284 29.5867 35.2552 29.4441 35.2815C21.1227 36.8145 18.785 36.842 18.1363 36.7542C18.1338 36.7538 18.1316 36.7535 18.1291 36.7531C18.1192 36.7517 18.1096 36.7502 18.1005 36.7488C18.0939 36.7477 18.0878 36.7466 18.0817 36.7457C18.0774 36.7449 18.0727 36.7442 18.0685 36.7435C18.028 36.7362 17.9964 36.7285 17.9721 36.7212L17.7849 36.6449L18.0182 36.0729C18.2475 35.5104 18.2441 34.8923 18.0086 34.3324C17.9497 34.1924 17.878 34.0602 17.7949 33.9371C17.5455 33.5679 17.1928 33.2804 16.771 33.1084L10.6354 30.6067C10.073 30.3771 9.45473 30.3807 8.89489 30.6162C8.33489 30.8517 7.90036 31.2912 7.67099 31.8535L0.168346 50.254C-0.30509 51.4151 0.25444 52.7447 1.41553 53.2183L7.5513 55.7202C7.83146 55.8344 8.1213 55.8885 8.40677 55.8885C9.30411 55.8885 10.1563 55.3538 10.5155 54.473L10.5719 54.3347L11.9866 54.9115C11.9874 54.9118 11.9882 54.9122 11.9891 54.9125C13.3422 55.4643 14.5889 56.2515 15.668 57.2283C15.8643 57.406 16.0549 57.5899 16.2397 57.7797C16.4246 57.9696 16.6033 58.1655 16.776 58.3671C16.8622 58.4679 16.9471 58.5702 17.03 58.6738C18.6024 60.6344 20.6636 62.1724 22.9906 63.1213L24.5822 63.7702H12.9241C12.1044 63.7702 11.4374 63.1032 11.4374 62.2835V59.393C11.4374 58.7621 10.926 58.2507 10.295 58.2507C9.66411 58.2507 9.1527 58.7621 9.1527 59.393V62.2835C9.1527 64.363 10.8444 66.0549 12.9241 66.0549H30.1855L44.9012 72.0552C45.4078 72.2617 45.9319 72.3597 46.4479 72.3596C48.0697 72.3596 49.61 71.3931 50.2592 69.8011C50.5254 69.1481 50.6109 68.4657 50.5392 67.8096C51.3046 67.9194 52.0982 67.8186 52.8176 67.508C53.5487 67.1922 54.1546 66.6892 54.585 66.0547H76.2287C78.3082 66.0547 80.0001 64.363 80.0001 62.2833V9.90342C79.9999 9.90186 79.9997 9.90061 79.9997 9.89904ZM39.7292 2.28468H49.4232L50.9218 8.76108H38.2306L39.7292 2.28468ZM35.8856 8.76108H11.9677L14.4975 2.28468H37.3842L35.8856 8.76108ZM51.2167 27.1737H51.2165L45.7225 22.3065C45.3958 22.0171 44.9861 21.8725 44.5765 21.8725C44.1669 21.8725 43.757 22.0171 43.4303 22.3065L37.9364 27.1737V11.0458H51.2167V27.1737ZM8.40395 53.6005L2.28787 51.1068L9.78255 32.7263L15.8986 35.2202L8.40395 53.6005ZM54.0421 60.4944L52.7311 59.9597C52.7304 59.9594 52.7298 59.9593 52.7292 59.9589C52.7287 59.9588 52.7282 59.9585 52.7278 59.9583C52.7276 59.9583 52.7275 59.9582 52.7273 59.9582L39.0733 54.3908C38.4892 54.1527 37.8225 54.433 37.5842 55.0174C37.3459 55.6016 37.6264 56.2683 38.2108 56.5066L51.8651 62.0741C51.9222 62.0974 51.9773 62.1232 52.0306 62.1514C52.0456 62.1594 52.0595 62.1691 52.0742 62.1774C52.1117 62.1986 52.1493 62.2199 52.1848 62.2435C52.2018 62.2549 52.2175 62.268 52.234 62.2799C52.2654 62.3024 52.2975 62.3246 52.3272 62.3489C52.3451 62.3636 52.3614 62.38 52.3787 62.3953C52.4053 62.4189 52.4325 62.4418 52.4575 62.4668C52.4748 62.4839 52.4903 62.5028 52.5068 62.5207C52.5298 62.5453 52.5534 62.5696 52.575 62.5955C52.5914 62.6153 52.6057 62.6364 52.6214 62.6569C52.6409 62.6825 52.6612 62.7077 52.6792 62.7343C52.6943 62.7564 52.7073 62.7799 52.7214 62.8025C52.7376 62.8288 52.7548 62.8546 52.7696 62.8816C52.7831 62.906 52.7943 62.9314 52.8067 62.9563C52.8198 62.983 52.834 63.0093 52.8459 63.0366C52.8573 63.0628 52.8665 63.09 52.8767 63.1168C52.887 63.1438 52.8982 63.1703 52.9073 63.1978C52.9164 63.2255 52.9232 63.2538 52.9309 63.2818C52.9386 63.3094 52.9472 63.3366 52.9536 63.3646C52.96 63.3928 52.964 63.4216 52.9692 63.45C52.9743 63.4785 52.9803 63.5066 52.984 63.5353C52.9878 63.5641 52.9892 63.5932 52.9915 63.6221C52.9939 63.6511 52.9973 63.68 52.9982 63.7091C52.9992 63.7377 52.9978 63.7666 52.9975 63.7953C52.9971 63.825 52.9976 63.8547 52.9957 63.8846C52.994 63.9128 52.9898 63.9411 52.9867 63.9694C52.9834 63.9999 52.9809 64.0303 52.9759 64.0607C52.9714 64.0885 52.9643 64.1161 52.9586 64.1439C52.952 64.1747 52.9465 64.2055 52.9382 64.2361C52.9311 64.2632 52.9214 64.29 52.9128 64.3169C52.9031 64.3475 52.8942 64.3782 52.8828 64.4083C52.8731 64.4291 52.8636 64.45 52.8546 64.4711C52.8526 64.476 52.8515 64.481 52.8497 64.4857C52.6712 64.8977 52.3418 65.225 51.9117 65.4108C51.4382 65.615 50.8962 65.6222 50.4243 65.4297L48.0051 64.4433C47.9939 64.4388 47.9825 64.4357 47.9712 64.4314C47.9598 64.4263 47.949 64.4203 47.9375 64.4157L36.8319 59.8874C36.2473 59.6493 35.5809 59.9296 35.3428 60.5139C35.1045 61.0982 35.385 61.7649 35.9692 62.0032L47.0748 66.5314C47.0867 66.5363 47.0987 66.5397 47.1108 66.5441C47.1215 66.5488 47.1315 66.5546 47.1426 66.5589C48.0747 66.9391 48.5239 68.0066 48.1439 68.9386C47.7637 69.871 46.6967 70.3203 45.7642 69.9399L30.8431 63.8558C30.8425 63.8555 30.8419 63.8552 30.8413 63.8549L23.8538 61.0057C22.6238 60.5041 21.4816 59.808 20.4733 58.9516C19.8683 58.4377 19.3116 57.8663 18.8128 57.2444C18.3214 56.6318 17.7824 56.0604 17.2024 55.5352C15.9263 54.3801 14.4521 53.4493 12.8522 52.7968C12.8521 52.7968 12.8519 52.7966 12.8518 52.7966L11.4352 52.2191L14.2566 45.2996L16.9228 38.7607L17.1196 38.8409C17.3047 38.9163 17.5688 39.0235 18.2794 39.0504C19.1672 39.0905 20.636 38.9979 23.2672 38.6262C25.057 38.3734 27.2525 38.0077 29.8155 37.5362C29.8786 37.5246 29.9413 37.5131 30.005 37.5013C30.1248 37.4791 30.2459 37.4566 30.3675 37.4341C30.462 37.4166 30.557 37.3988 30.6528 37.3809C30.7619 37.3604 30.8714 37.3399 30.9817 37.3191C31.0988 37.2971 31.2172 37.2748 31.3363 37.2521C31.4316 37.234 31.5267 37.216 31.623 37.1977C31.7681 37.1701 31.9158 37.1418 32.0639 37.1134C32.1402 37.0987 32.2156 37.0843 32.2925 37.0696C32.5194 37.0259 32.7492 36.9815 32.9833 36.936C39.5865 35.6517 45.96 34.2221 46.2464 34.1577C46.275 34.1518 46.3036 34.1484 46.3322 34.1442C47.0659 34.0356 47.7848 34.4599 47.9953 35.1446C48.0692 35.3852 48.0778 35.6307 48.0312 35.8616C47.9289 36.3699 47.5595 36.8085 47.0315 36.9718L35.7062 40.4771C35.2452 40.6199 34.9236 41.0366 34.9028 41.5188C34.8819 42.0009 35.1659 42.4441 35.6128 42.6263L56.3478 51.0812C56.7993 51.2652 57.1521 51.6141 57.3412 52.0636C57.5303 52.5132 57.5331 53.0094 57.3489 53.4608C57.1646 53.9124 56.8159 54.2652 56.3664 54.4543C56.1417 54.5486 55.9053 54.5965 55.6685 54.5979C55.6651 54.5979 55.6617 54.5974 55.6582 54.5974C55.6026 54.5974 55.5471 54.5952 55.4917 54.59C55.4753 54.5885 55.459 54.585 55.4426 54.5832C55.4003 54.578 55.3579 54.5732 55.3159 54.565C55.2893 54.5599 55.2631 54.5521 55.2367 54.5458C55.2051 54.5383 55.1734 54.5319 55.1421 54.5227C55.1098 54.5132 55.0781 54.5005 55.0462 54.4891C55.0209 54.48 54.9951 54.4726 54.9701 54.4624L41.3145 48.8943C40.7303 48.656 40.0637 48.9365 39.8255 49.5208C39.5872 50.1051 39.8676 50.7718 40.452 51.0101L57.0075 57.7605C57.1204 57.8065 57.2271 57.8629 57.3267 57.9285C57.6253 58.1254 57.8592 58.4058 58.0009 58.743C58.1664 59.1363 58.1892 59.5654 58.0689 59.9689C58.0517 60.0266 58.0315 60.0838 58.0085 60.1402C57.9848 60.1985 57.9584 60.2549 57.9295 60.3093C57.8621 60.4358 57.7801 60.5502 57.6885 60.6544C57.6317 60.7191 57.5709 60.7794 57.5062 60.8347C57.4959 60.8435 57.4865 60.8535 57.476 60.8619C57.0592 61.2029 56.5018 61.3494 55.9573 61.2394C55.8468 61.2171 55.737 61.1854 55.6289 61.1413L54.0421 60.4944Z" fill="#343434"/>
</svg>
