<svg width="252" height="20" viewBox="0 0 252 20" fill="none" xmlns="http://www.w3.org/2000/svg">
<path d="M16.1082 0.0775241C17.7345 0.0775241 18.9736 0.310096 19.9803 0.697693C20.9871 1.08529 21.6841 1.70544 22.1487 2.55815C22.6134 3.41086 22.8457 4.41862 22.8457 5.73645H18.1217C18.0443 5.11629 17.8894 4.57365 17.5796 4.34109C17.2698 4.03101 16.6503 3.87597 15.721 3.87597H7.74431C6.19545 3.87597 5.42102 4.57365 5.42102 5.969C5.42102 6.82171 5.57592 7.36435 5.96313 7.59691C6.35035 7.82947 6.89245 7.9845 7.66688 7.9845H16.3405C17.5796 7.9845 18.5864 8.06201 19.3608 8.13953C20.1352 8.29457 20.7548 8.52713 21.2969 8.91472C21.839 9.30232 22.2262 9.92249 22.536 10.6977C22.8457 11.4729 22.9232 12.5581 22.9232 13.9535C22.9232 15.3488 22.6909 16.5116 22.2262 17.3643C21.7615 18.2171 21.0645 18.9147 20.0578 19.3023C19.051 19.6899 17.8119 19.9225 16.2631 19.9225H6.66012C4.95637 19.9225 3.63983 19.6899 2.71051 19.3023C1.70375 18.9147 1.00676 18.2946 0.619548 17.4418C0.232332 16.5891 0 15.5814 0 14.2636H4.87892C4.87892 14.7287 5.11126 15.1938 5.57592 15.5814C6.04058 15.969 6.58267 16.124 7.20222 16.124H15.1789C16.2631 16.124 17.0375 15.969 17.5022 15.5814C17.9668 15.1938 18.2766 14.6512 18.2766 13.876C18.2766 13.3333 18.1991 12.9457 18.0443 12.6357C17.8894 12.3256 17.5796 12.0155 17.1149 11.8605C16.6503 11.7054 15.9533 11.6279 15.1014 11.6279H8.05409C6.66012 11.6279 5.49847 11.5504 4.56915 11.3954C3.63983 11.2403 2.94284 10.9302 2.32329 10.5426C1.78119 10.155 1.31654 9.53489 1.08421 8.7597C0.851882 7.9845 0.696995 6.97676 0.696995 5.73645C0.696995 4.7287 0.851882 3.87597 1.08421 3.1783C1.39398 2.48062 1.7812 1.86048 2.40074 1.47289C3.02029 1.00777 3.71727 0.697679 4.64659 0.465121C5.57591 0.232563 6.66012 0.155048 8.05409 0.155048H16.1082V0.0775241ZM25.5562 0.0775241H46.9306V4.03101H38.5667V19.9225H33.8427V4.03101H25.5562V0.0775241ZM49.3313 19.9225V0.0775241H69.6214V3.79847H54.1328V8.13953H69.1567V11.6279H54.1328V16.2016H69.6214V19.9225H49.3313ZM73.1838 19.9225V0.0775241H93.4739V3.79847H77.9853V8.13953H93.0092V11.6279H77.9853V16.2016H93.4739V19.9225H73.1838ZM96.7265 19.9225V0.0775241H101.451V15.969H113.687V19.9225H96.7265ZM116.707 19.9225V0.0775241H130.259C131.498 0.0775241 132.583 0.232563 133.512 0.465121C134.364 0.697679 135.061 1.08528 135.68 1.62791C136.223 2.17055 136.61 2.86823 136.919 3.72094C137.152 4.57365 137.307 5.65891 137.307 6.97674C137.307 8.68217 137.074 10 136.61 11.0078C136.145 12.0155 135.371 12.7907 134.364 13.2558C133.357 13.7209 132.041 13.9535 130.414 13.9535H121.586V19.845H116.707V19.9225ZM121.508 10.0775H129.408C130.182 10.0775 130.801 10 131.266 9.76744C131.731 9.53488 132.041 9.22481 132.195 8.7597C132.35 8.29458 132.505 7.75193 132.505 6.97674C132.505 5.96899 132.273 5.1938 131.886 4.72868C131.421 4.26357 130.647 4.03101 129.485 4.03101H121.586V10.0775H121.508ZM144.354 12.6357C144.354 13.4884 144.509 14.1861 144.664 14.6512C144.896 15.1163 145.283 15.4264 145.748 15.6589C146.29 15.8915 147.065 15.969 147.994 15.969H154.267C155.274 15.969 156.048 15.8915 156.59 15.6589C157.132 15.5039 157.442 15.1163 157.674 14.6512C157.907 14.1861 157.984 13.4884 157.984 12.5581V7.51938C157.984 6.51163 157.829 5.81396 157.597 5.27133C157.364 4.72869 156.977 4.4186 156.435 4.26356C155.893 4.031 155.119 3.95349 154.189 3.95349H148.071C147.065 3.95349 146.29 4.031 145.748 4.26356C145.206 4.49612 144.819 4.80622 144.586 5.34885C144.354 5.81397 144.277 6.58916 144.199 7.59691V12.6357H144.354ZM162.786 13.1783C162.786 14.4961 162.708 15.5039 162.476 16.3566C162.243 17.2093 161.856 17.907 161.314 18.4496C160.772 18.9922 160.075 19.3798 159.146 19.6124C158.216 19.845 157.055 20 155.661 20H146.987C145.671 20 144.509 19.845 143.58 19.6124C142.65 19.3798 141.876 18.9922 141.334 18.4496C140.714 17.907 140.327 17.2093 140.095 16.3566C139.862 15.5039 139.707 14.4961 139.707 13.2558V7.13179C139.707 5.73644 139.862 4.65117 140.095 3.72094C140.327 2.79071 140.792 2.09302 141.334 1.55039C141.876 1.00775 142.65 0.620155 143.58 0.387597C144.509 0.155039 145.671 0.0775241 147.065 0.0775241H155.738C157.442 0.0775241 158.836 0.310096 159.843 0.697693C160.849 1.08529 161.624 1.86047 162.166 2.86822C162.631 3.87598 162.94 5.34884 162.94 7.13179V13.1783H162.786ZM188.961 19.9225L184.16 6.43412L179.358 19.9225H172.388L164.644 0.0775241H169.523L175.718 16.0465H175.951L181.527 0.0775241H186.483L192.136 15.8915H192.524L198.564 0.0775241H203.443L195.776 19.9225H188.961ZM205.844 19.9225V0.0775241H226.134V3.79847H210.645V8.13953H225.669V11.6279H210.645V16.2016H226.134V19.9225H205.844ZM234.188 4.03101V10.0775H244.101C245.108 10.0775 245.805 9.84496 246.192 9.37984C246.579 8.91473 246.811 8.13953 246.811 7.05426C246.811 5.96899 246.579 5.1938 246.192 4.72868C245.805 4.26357 245.108 4.03101 244.101 4.03101H234.188ZM251.923 19.9225H247.121V16.8217C247.121 15.814 246.811 15.1163 246.269 14.6512C245.727 14.1861 244.72 13.9535 243.404 13.9535H234.188V19.845H229.387V0H244.411C245.495 0 246.502 0.0775382 247.353 0.310096C248.205 0.542654 248.902 0.852727 249.522 1.39536C250.141 1.938 250.606 2.63566 250.993 3.56589C251.303 4.49613 251.535 5.65891 251.535 6.97674C251.535 8.37209 251.303 9.45737 250.761 10.2326C250.219 11.0078 249.522 11.6279 248.67 12.1705C249.522 12.4806 250.141 12.7907 250.529 12.9457C250.916 13.1008 251.226 13.4884 251.535 13.876C251.845 14.3411 252 14.9612 252 15.7364V19.9225H251.923Z" fill="#343434"/>
</svg>
